<svg id="_x33_0" enable-background="new 0 0 64 64" height="512" viewBox="0 0 64 64" width="512" xmlns="http://www.w3.org/2000/svg" xmlns:xlink="http://www.w3.org/1999/xlink"><linearGradient id="SVGID_1_" gradientUnits="userSpaceOnUse" x1="32" x2="32" y1="63" y2="1"><stop offset="0" stop-color="#9f2fff"/><stop offset="1" stop-color="#0bb1d3"/></linearGradient><path d="m60.127 37h-.127v-6c0-1.103-.897-2-2-2h-2v-4c0-1.103-.897-2-2-2h-2c-1.103 0-2 .897-2 2v4h-2v-2c0-1.103-.897-2-2-2h-2c-1.103 0-2 .897-2 2v2h-2v-6c1.103 0 2-.897 2-2v-2c0-1.103-.897-2-2-2h-.159c-.781-3.629-3.487-6.488-6.94-7.549l1.634-2.451h7.465c1.103 0 2-.897 2-2v-2c0-1.103-.897-2-2-2h-10.535l-5.483 8.223c-3.869.814-6.977 3.844-7.823 7.777h-.159c-1.103 0-2 .897-2 2v2c0 1.103.897 2 2 2v13.756l-2.484-.654-3.75-3.75c.154-.429.234-.886.234-1.352 0-2.206-1.794-4-4-4-1.896 0-3.489 1.327-3.898 3.102-1.775.409-3.102 2.002-3.102 3.898 0 2.206 1.794 4 4 4 .726 0 1.423-.192 2.032-.554l4.11 4.11 1.709 4.444h-1.851c-1.103 0-2 .897-2 2v6l1.841 7.484c.222.893 1.02 1.516 1.94 1.516h22.438c.92 0 1.718-.623 1.94-1.516l.492-1.969.239 1.754c.135.986.986 1.73 1.982 1.73h18.254c.996 0 1.848-.744 1.982-1.73l2.863-21.005c.019-.13.027-.26.027-.392.002-1.583-1.287-2.872-2.871-2.872zm-2.127-6v6h-2v-6zm-4-6v12h-2v-12zm-4 6v6h-2v-6zm-4-4v10h-2v-10zm-4 4v6h-2v-6zm-9.465-28h9.465v2h-8.535l-2.693 4.039c-.276-.023-.553-.039-.835-.039h-1.403zm-4.473 8h1.875c3.704 0 6.89 2.512 7.84 6h-17.554c.949-3.488 4.135-6 7.839-6zm-10.062 8h22l.002 2h-22.002zm2 4h18v14h-.127c-1.584 0-2.873 1.289-2.873 2.873 0 .132.009.262.026.388l.783 5.739h-2.877c-2.138-3.868-5.788-6.838-10.281-8.021l-2.651-.697zm-2.313 30-4.555-11.843 2.264-3.019 6.744 1.775c6.069 1.598 10.393 6.899 10.818 13.087zm17.271 0c-.105-1.745-.484-3.425-1.098-5h2.222l.682 5zm-28.545-17.587c-.379.379-.881.587-1.413.587-1.103 0-2-.897-2-2s.897-2 2-2h1v-1c0-1.103.897-2 2-2s2 .897 2 2c0 .371-.1.728-.289 1.03l-.421.675 4.39 4.389-1.788 2.384-4.772-4.772zm7.207 12.587 1.923 5h-4.543v-5zm21.599 13h-22.439l-1.5-6h25.44zm25.772-21.009-2.864 21.009h-18.254l-2.865-21.013c-.005-.038-.008-.076-.008-.114 0-.481.392-.873.873-.873h22.254c.481 0 .873.392.873.873 0 .038-.003.076-.009.118zm-11.991-.178-2.375 7.187h-7.359l5.91 4.989-2.381 7.704 6.205-4.739 6.205 4.739-2.381-7.704 5.91-4.989h-7.359zm1.523 11.502.924 2.991-2.447-1.869-2.447 1.87.924-2.991-2.743-2.316h3.336l.93-2.813.93 2.813h3.336zm-26.523-16.315h-2v-8c0-1.103.897-2 2-2h10c1.103 0 2 .897 2 2v8h-2v-8h-10zm5-6c-1.654 0-3 1.346-3 3s1.346 3 3 3 3-1.346 3-3-1.346-3-3-3zm0 4c-.552 0-1-.448-1-1s.448-1 1-1 1 .448 1 1-.448 1-1 1z" fill="url(#SVGID_1_)"/></svg>